<?xml version="1.0" standalone="no"?><!DOCTYPE svg PUBLIC "-//W3C//DTD SVG 1.1//EN" "http://www.w3.org/Graphics/SVG/1.1/DTD/svg11.dtd"><svg t="1651755191311" class="icon" viewBox="0 0 1024 1024" version="1.1" xmlns="http://www.w3.org/2000/svg" p-id="2869" xmlns:xlink="http://www.w3.org/1999/xlink" width="200" height="200"><defs><style type="text/css">@font-face { font-family: feedback-iconfont; src: url("//at.alicdn.com/t/font_1031158_u69w8yhxdu.woff2?t=1630033759944") format("woff2"), url("//at.alicdn.com/t/font_1031158_u69w8yhxdu.woff?t=1630033759944") format("woff"), url("//at.alicdn.com/t/font_1031158_u69w8yhxdu.ttf?t=1630033759944") format("truetype"); }
</style></defs><path d="M938.666667 1024 85.333333 1024c-46.933333 0-85.333333-38.4-85.333333-85.333333L0 85.333333c0-46.933333 38.4-85.333333 85.333333-85.333333l853.333333 0c46.933333 0 85.333333 38.4 85.333333 85.333333l0 853.333333C1024 985.6 985.6 1024 938.666667 1024zM938.666667 106.666667c0-12.8-8.533333-21.333333-21.333333-21.333333L106.666667 85.333333C93.866667 85.333333 85.333333 93.866667 85.333333 106.666667l0 810.666667c0 12.8 8.533333 21.333333 21.333333 21.333333l810.666667 0c12.8 0 21.333333-8.533333 21.333333-21.333333L938.666667 106.666667z" p-id="2870"></path></svg>