<?xml version="1.0" standalone="no"?><!DOCTYPE svg PUBLIC "-//W3C//DTD SVG 1.1//EN" "http://www.w3.org/Graphics/SVG/1.1/DTD/svg11.dtd"><svg t="1652006436422" class="icon" viewBox="0 0 1032 1024" version="1.1" xmlns="http://www.w3.org/2000/svg" p-id="2918" xmlns:xlink="http://www.w3.org/1999/xlink" width="201.5625" height="200"><defs><style type="text/css">@font-face { font-family: feedback-iconfont; src: url("//at.alicdn.com/t/font_1031158_u69w8yhxdu.woff2?t=1630033759944") format("woff2"), url("//at.alicdn.com/t/font_1031158_u69w8yhxdu.woff?t=1630033759944") format("woff"), url("//at.alicdn.com/t/font_1031158_u69w8yhxdu.ttf?t=1630033759944") format("truetype"); }
</style></defs><path d="M814.191 493.030v-351.026c0-38.546-31.346-69.913-69.913-69.913h-437.53c-38.546 0-69.913 31.346-69.913 69.913v344.87c-130.518 37.357-204.834 98.421-204.834 169.44 0 127.784 229.273 199.074 454.831 204.647l-37.19 37.649c-12.167 12.293-12.042 32.118 0.271 44.264 6.094 6.031 14.046 9.037 21.997 9.037 8.077 0 16.132-3.11 22.267-9.308l90.386-91.471c11.979-12.126 12.063-31.597 0.188-43.826l-90.386-92.974c-12.063-12.397-31.867-12.647-44.264-0.626-12.397 12.063-12.667 31.868-0.626 44.264l39.151 40.257c-227.166-5.343-393.976-77.197-393.976-141.913 0-30.783 44.431-72.918 142.226-104.014v138.803c0 17.301 14.003 31.304 31.304 31.304s31.304-14.003 31.304-31.304v-549.099c0-3.944 3.339-7.304 7.304-7.304h437.551c3.944 0 7.304 3.339 7.304 7.304v549.078c0 17.301 14.003 31.304 31.304 31.304s31.304-14.003 31.304-31.304v-131.874c75.151 27.214 121.837 63.653 121.837 97.086 0 46.518-96.606 108.939-275.624 133.002-17.134 2.296-29.154 18.073-26.859 35.207 2.129 15.714 15.548 27.13 30.991 27.13 1.377 0 2.797-0.083 4.216-0.271 203.478-27.36 329.906-102.094 329.906-195.068-0.083-66.699-66.95-125.53-184.529-163.263z" p-id="2919"></path><path d="M616.41 219.471c0 24.135 19.566 43.701 43.701 43.701s43.701-19.566 43.701-43.701c0-24.135-19.566-43.701-43.701-43.701-24.135 0-43.701 19.566-43.701 43.701z" p-id="2920"></path></svg>